HIERARCHY
ROOT SpineBase
{
  OFFSET 0.000000 0.000000 0.000000
  CHANNELS 6 Xposition Yposition Zposition Zrotation Xrotation Yrotation
  JOINT SpineMid
  {
    OFFSET 0.000000 28.559755 0.000000
    CHANNELS 3 Zrotation Xrotation Yrotation
    JOINT SpineShoulder
    {
      OFFSET -0.169532 21.072299 -0.610331
      CHANNELS 3 Zrotation Xrotation Yrotation
      JOINT Neck
      {
        OFFSET -0.038687 6.944885 -0.491575
        CHANNELS 3 Zrotation Xrotation Yrotation
        JOINT Head
        {
          OFFSET 2.727645 12.892051 -0.578770
          CHANNELS 3 Zrotation Xrotation Yrotation
          End Site
          {
            OFFSET 0 0 0
          }
        }
      }
      JOINT ShoulderLeft
      {
        OFFSET -14.454059 -4.211144 -7.524042
        CHANNELS 3 Zrotation Xrotation Yrotation
        JOINT ElbowLeft
        {
          OFFSET -4.571586 -23.453203 1.008494
          CHANNELS 3 Zrotation Xrotation Yrotation
          JOINT WristLeft
          {
            OFFSET 0.458726 -19.747338 -4.718293
            CHANNELS 3 Zrotation Xrotation Yrotation
            JOINT HandLeft
            {
              OFFSET 0.488936 -6.507567 1.015136
              CHANNELS 3 Zrotation Xrotation Yrotation
              JOINT HandTipLeft
              {
                OFFSET -0.191162 -7.145370 -0.678310
                CHANNELS 3 Zrotation Xrotation Yrotation
                End Site
                {
                  OFFSET 0 0 0
                }
              }
              JOINT ThumbLeft
              {
                OFFSET 3.683564 0.791002 -1.667594
                CHANNELS 3 Zrotation Xrotation Yrotation
                End Site
                {
                  OFFSET 0 0 0
                }
              }
            }
          }
        }
      }
      JOINT ShoulderRight
      {
        OFFSET 15.466344 -5.210783 1.697957
        CHANNELS 3 Zrotation Xrotation Yrotation
        JOINT ElbowRight
        {
          OFFSET 2.555934 -23.243976 3.716058
          CHANNELS 3 Zrotation Xrotation Yrotation
          JOINT WristRight
          {
            OFFSET 1.785802 -21.676580 -2.682344
            CHANNELS 3 Zrotation Xrotation Yrotation
            JOINT HandRight
            {
              OFFSET -0.020084 -6.466464 -0.577198
              CHANNELS 3 Zrotation Xrotation Yrotation
              JOINT HandTipRight
              {
                OFFSET 0.303540 -6.371639 1.171538
                CHANNELS 3 Zrotation Xrotation Yrotation
                End Site
                {
                  OFFSET 0 0 0
                }
              }
              JOINT ThumbRight
              {
                OFFSET -1.642138 -2.780617 0.163774
                CHANNELS 3 Zrotation Xrotation Yrotation
                End Site
                {
                  OFFSET 0 0 0
                }
              }
            }
          }
        }
      }
    }
  }
  JOINT HipLeft
  {
    OFFSET -6.272859 0.374107 -5.044948
    CHANNELS 3 Zrotation Xrotation Yrotation
    JOINT KneeLeft
    {
      OFFSET -5.016081 -28.575835 6.372191
      CHANNELS 3 Zrotation Xrotation Yrotation
      JOINT AnkleLeft
      {
        OFFSET -4.113496 -32.149034 7.600415
        CHANNELS 3 Zrotation Xrotation Yrotation
        JOINT FootLeft
        {
          OFFSET 1.959904 -5.647192 -3.111496
          CHANNELS 3 Zrotation Xrotation Yrotation
          End Site
          {
            OFFSET 0 0 0
          }
        }
      }
    }
  }
  JOINT HipRight
  {
    OFFSET 5.754777 0.460948 -1.569599
    CHANNELS 3 Zrotation Xrotation Yrotation
    JOINT KneeRight
    {
      OFFSET -2.347364 -27.949709 8.646213
      CHANNELS 3 Zrotation Xrotation Yrotation
      JOINT AnkleRight
      {
        OFFSET -6.577913 -33.636225 11.867907
        CHANNELS 3 Zrotation Xrotation Yrotation
        JOINT FootRight
        {
          OFFSET 2.427786 -3.734195 -12.441382
          CHANNELS 3 Zrotation Xrotation Yrotation
          End Site
          {
            OFFSET 0 0 0
          }
        }
      }
    }
  }
}
MOTION
Frames: 16
Frame Time: 0.033333
24.733023 68.206118 368.035799 -0.000000 0.000000 -16.116490 -0.000000 0.000000 16.116490 -0.000000 0.000000 0.000000 -0.000000 0.000000 0.000000 0.000000 0.000000 0.000000 -0.000000 0.000000 0.000000 -0.000000 0.000000 0.000000 -0.000000 0.000000 0.000000 -0.000000 0.000000 0.000000 0.000000 0.000000 0.000000 0.000000 0.000000 0.000000 -0.000000 0.000000 0.000000 -0.000000 0.000000 0.000000 -0.000000 0.000000 0.000000 -0.000000 0.000000 0.000000 0.000000 0.000000 0.000000 0.000000 0.000000 0.000000 -0.000000 0.000000 16.116490 -0.000000 0.000000 0.000000 -0.000000 0.000000 0.000000 0.000000 0.000000 0.000000 -0.000000 0.000000 16.116490 -0.000000 0.000000 0.000000 -0.000000 0.000000 0.000000 0.000000 0.000000 0.000000
24.671477 68.166421 368.085031 -0.071922 -0.032189 -15.684734 0.060542 0.050434 15.684687 -0.000000 0.000000 0.000000 -0.000000 0.000000 0.000000 0.000000 0.000000 0.000000 -0.000000 0.000000 0.000000 -0.000000 0.000000 0.000000 -0.000000 0.000000 0.000000 -0.000000 0.000000 0.000000 0.000000 0.000000 0.000000 0.000000 0.000000 0.000000 -0.000000 0.000000 0.000000 -0.000000 0.000000 0.000000 -1.251686 -2.602233 0.091566 0.940047 3.859488 -0.129446 0.000000 0.000000 0.000000 0.000000 0.000000 0.000000 0.060542 0.050434 15.684687 -0.000000 0.000000 0.000000 1.379801 19.607300 5.338528 0.000000 0.000000 0.000000 0.060542 0.050434 15.684687 -0.000000 0.000000 0.000000 -0.281218 -2.714674 -0.908111 0.000000 0.000000 0.000000
24.616275 68.129737 368.131802 -0.136104 -0.068606 -15.319158 0.113142 0.102126 15.318975 -0.000000 0.000000 0.000000 -0.000000 0.000000 0.000000 0.000000 0.000000 0.000000 -0.000000 0.000000 0.000000 -0.825713 -0.795444 0.173400 0.828196 0.792859 -0.184862 -1.252434 0.483890 0.111164 0.000000 0.000000 0.000000 0.000000 0.000000 0.000000 -0.000000 0.000000 0.000000 -0.000000 0.000000 0.000000 -2.368346 -4.807306 0.127409 1.875989 7.042306 -0.262973 0.000000 0.000000 0.000000 0.000000 0.000000 0.000000 0.113142 0.102126 15.318975 -0.000000 0.000000 0.000000 1.321938 30.612374 8.465895 0.000000 0.000000 0.000000 0.113142 0.102126 15.318975 -0.000000 0.000000 0.000000 -0.581835 -5.210581 -1.748691 0.000000 0.000000 0.000000
24.567419 68.096066 368.176113 -0.192532 -0.109244 -15.018888 0.157647 0.155404 15.018491 -0.000000 0.000000 0.000000 -0.000000 0.000000 0.000000 0.000000 0.000000 0.000000 -0.000000 0.000000 0.000000 -1.117531 -1.073643 0.232183 1.122067 1.068901 -0.253122 -1.594272 0.599853 0.143527 0.000000 0.000000 0.000000 0.000000 0.000000 0.000000 -0.000000 0.000000 0.000000 -0.000000 0.000000 0.000000 -3.319288 -6.531605 0.127857 2.781463 9.433171 -0.398528 0.000000 0.000000 0.000000 0.000000 0.000000 0.000000 0.157647 0.155404 15.018491 -0.000000 0.000000 0.000000 0.949045 36.810383 10.420347 0.000000 0.000000 0.000000 0.157647 0.155404 15.018491 -0.000000 0.000000 0.000000 -0.858882 -7.243986 -2.433492 0.000000 0.000000 0.000000
24.524908 68.065408 368.217963 -0.241198 -0.154090 -14.783172 0.193897 0.210533 14.782492 -0.000000 0.000000 0.000000 -0.000000 0.000000 0.000000 0.000000 0.000000 0.000000 -0.000000 0.000000 0.000000 -1.332144 -1.274858 0.274674 1.338568 1.268111 -0.304310 -1.729524 0.625404 0.156760 0.000000 0.000000 0.000000 0.000000 0.000000 0.000000 -0.000000 0.000000 0.000000 -0.000000 0.000000 0.000000 -4.073363 -7.698644 0.114172 3.625443 10.932921 -0.526024 0.000000 0.000000 0.000000 0.000000 0.000000 0.000000 0.193897 0.210533 14.782492 -0.000000 0.000000 0.000000 0.585581 40.368009 11.652545 0.000000 0.000000 0.000000 0.193897 0.210533 14.782492 -0.000000 0.000000 0.000000 -1.059979 -8.580394 -2.871312 0.000000 0.000000 0.000000
24.488741 68.037763 368.257353 -0.282095 -0.203133 -14.611377 0.221732 0.267723 14.610359 -0.000000 0.000000 0.000000 -0.000000 0.000000 0.000000 0.000000 0.000000 0.000000 -0.000000 0.000000 0.000000 -1.471139 -1.400283 0.301985 2.171066 2.851188 -0.146762 -2.336541 -0.896034 -0.117846 0.000000 0.000000 0.000000 0.000000 0.000000 0.000000 -0.000000 0.000000 0.000000 -0.000000 0.000000 0.000000 -4.599830 -8.237867 0.105672 4.372235 11.458829 -0.626965 0.000000 0.000000 0.000000 0.000000 0.000000 0.000000 0.221732 0.267723 14.610359 -0.000000 0.000000 0.000000 0.323373 42.307933 12.376228 0.000000 0.000000 0.000000 0.221732 0.267723 14.610359 0.697988 -0.284083 0.303656 -1.884205 -8.755587 -3.290555 0.000000 0.000000 0.000000
24.456815 68.021476 368.294357 -0.321177 -0.262866 -14.526873 0.244978 0.335021 14.525420 -0.000000 0.000000 0.000000 0.485851 -0.709183 0.174975 0.000000 0.000000 0.000000 -0.000000 0.000000 0.000000 -1.621394 -1.470875 0.333578 2.079337 3.736518 -0.156061 -2.018271 -3.116507 -0.150669 0.000000 0.000000 0.000000 0.000000 0.000000 0.000000 -0.000000 0.000000 0.000000 -0.802163 -0.470611 0.057261 -3.570275 -8.066538 0.062818 3.601786 12.529090 -0.562822 0.000000 0.000000 0.000000 0.000000 0.000000 0.000000 0.244978 0.335021 14.525420 -0.000000 0.000000 0.000000 0.504051 39.670654 11.530120 0.000000 0.000000 0.000000 -0.013371 1.143853 14.442762 0.854016 -1.380012 0.490133 -1.946435 -8.039914 -3.128252 0.000000 0.000000 0.000000
24.430500 67.995852 368.327037 -0.357534 -0.323936 -14.490535 0.265113 0.403089 14.488592 -0.000000 0.000000 0.000000 0.460790 -0.781143 0.189204 0.000000 0.000000 0.000000 -0.000000 0.000000 0.000000 -1.841703 -1.439719 0.384791 2.160298 4.906961 -0.141004 -1.656765 -4.271635 -0.258427 0.000000 0.000000 0.000000 0.000000 0.000000 0.000000 -0.000000 0.000000 0.000000 -1.103095 -0.827320 0.060484 -3.204691 -7.192188 0.093823 5.140833 10.068101 -0.600967 0.000000 0.000000 0.000000 0.000000 0.000000 0.000000 0.265113 0.403089 14.488592 -0.000000 0.000000 0.000000 0.465933 39.677944 11.561837 0.000000 0.000000 0.000000 -0.135379 1.296041 14.362360 1.084935 -1.568219 0.595723 -1.883279 -6.636003 -2.633972 0.000000 0.000000 0.000000
24.409258 67.978049 368.358730 -0.382991 -0.385825 -14.515872 0.274070 0.469498 14.513459 -0.000000 0.000000 0.000000 0.314684 -0.800722 0.185792 0.000000 0.000000 0.000000 -0.000000 0.000000 0.000000 -2.036511 -1.522889 0.425719 3.400177 7.200319 0.053247 -1.679150 -6.871372 -0.677876 0.000000 0.000000 0.000000 0.000000 0.000000 0.000000 -0.000000 0.000000 0.000000 -0.977370 -0.516628 0.074071 -4.121363 -6.256530 0.138168 6.360330 5.724969 -0.735420 0.000000 0.000000 0.000000 0.000000 0.000000 0.000000 0.274070 0.469498 14.513459 -0.000000 0.000000 0.000000 -0.353002 42.449173 12.952052 0.000000 0.000000 0.000000 -0.030052 1.363677 14.417235 0.959256 -1.538886 0.550468 -1.582374 -4.620227 -1.871175 0.000000 0.000000 0.000000
24.392962 67.948949 368.402176 -0.374726 -0.447581 -14.624204 0.249594 0.527684 14.621591 -0.343445 -0.794217 -0.031100 0.363228 -0.001382 0.195415 0.000000 0.000000 0.000000 0.343047 0.794389 0.026341 -1.780690 -1.567425 0.366054 5.087419 10.047666 0.403313 -1.828465 -8.633558 -1.313932 0.000000 0.000000 0.000000 0.000000 0.000000 0.000000 0.343047 0.794389 0.026341 -0.835407 0.073187 0.109999 -4.104138 -2.950063 0.210887 6.090354 2.284868 -0.441263 0.000000 0.000000 0.000000 0.000000 0.000000 0.000000 0.249594 0.527684 14.621591 -0.000000 0.000000 0.000000 0.703956 38.905411 11.169859 0.000000 0.000000 0.000000 0.249594 0.527684 14.621591 0.815653 -0.459820 0.380978 -1.210382 -2.275691 -0.945666 0.000000 0.000000 0.000000
24.344258 67.891892 368.446122 -0.418102 -0.528562 -14.508543 0.272370 0.616441 14.505150 -0.266080 -0.883370 -0.025792 0.265714 0.883480 0.021692 0.000000 0.000000 0.000000 0.265714 0.883480 0.021692 -1.142802 -1.206179 0.233654 7.799699 13.646491 0.859332 -2.557856 -9.634157 -2.368710 0.000000 0.000000 0.000000 0.000000 0.000000 0.000000 0.621712 -1.283176 -0.157959 -0.878740 4.698890 0.489621 -3.837849 1.245062 0.067063 6.044284 -4.657045 0.165428 0.000000 0.000000 0.000000 0.000000 0.000000 0.000000 0.272370 0.616441 14.505150 -0.000000 0.000000 0.000000 1.518714 35.699918 9.689840 0.000000 0.000000 0.000000 0.272370 0.616441 14.505150 0.740227 -0.430432 0.348113 -0.737620 0.434886 -0.342533 0.000000 0.000000 0.000000
24.392389 67.880215 368.438437 -0.331548 -0.541210 -14.445965 0.186065 0.606803 14.443414 -0.184807 -0.911807 -0.019620 0.184518 0.911866 0.016681 0.000000 0.000000 0.000000 -1.061960 0.639498 0.032941 1.246491 0.271803 -0.002341 10.029344 17.915983 1.365184 -4.045513 -11.571971 -3.661160 0.000000 0.000000 0.000000 0.000000 0.000000 0.000000 1.088897 -3.144239 -0.265614 -0.276862 10.372546 0.685224 -4.932798 4.588967 -0.188713 5.745236 -10.702461 0.601790 0.000000 0.000000 0.000000 0.000000 0.000000 0.000000 0.186065 0.606803 14.443414 0.674699 -1.145388 0.312308 1.734640 34.265769 8.098832 0.000000 0.000000 0.000000 0.186065 0.606803 14.443414 -0.000000 0.000000 0.000000 -0.279505 -2.203151 -0.542287 0.000000 0.000000 0.000000
24.578811 67.923034 368.375566 -0.090525 -0.489675 -14.419237 -0.034263 0.496792 14.418998 -0.083842 -0.916426 -0.011704 0.083666 0.916442 0.010364 0.000000 0.000000 0.000000 -2.294105 0.769004 -0.028096 5.545891 3.221254 -0.704241 10.268635 20.646576 2.503218 -5.679802 -15.056936 -4.959805 0.000000 0.000000 0.000000 0.000000 0.000000 0.000000 1.469760 -5.475473 -0.412108 1.092244 18.014376 0.656254 -6.056722 10.696206 -0.674322 5.225294 -13.091533 1.626533 0.000000 0.000000 0.000000 0.000000 0.000000 0.000000 -0.034263 0.496792 14.418998 0.767032 -1.634858 0.400468 2.243755 33.067657 7.126316 0.000000 0.000000 0.000000 -0.034263 0.496792 14.418998 -0.000000 0.000000 0.000000 -0.229321 -2.221913 -0.733500 0.000000 0.000000 0.000000
24.815929 68.032761 368.313445 0.191910 -0.463653 -14.519310 -0.302028 0.400728 14.521143 0.068969 -0.900723 0.000406 -0.068971 0.900722 0.000678 0.000000 0.000000 0.000000 -3.902494 1.079280 -0.131899 11.251640 7.138846 -1.826138 9.545145 22.833472 3.956450 -7.041097 -23.744943 -5.623434 0.000000 0.000000 0.000000 0.000000 0.000000 0.000000 2.249591 -7.760011 -0.436989 4.054129 27.051185 -0.498609 -12.833161 15.947776 -1.381110 12.105850 -11.398398 5.523025 0.000000 0.000000 0.000000 0.000000 0.000000 0.000000 -0.302028 0.400728 14.521143 0.688099 -1.886274 0.414081 2.785484 32.683807 6.592748 0.000000 0.000000 0.000000 -1.078243 0.410988 14.277808 0.749702 -0.201329 0.250150 -0.161181 -2.246073 -0.992310 0.000000 0.000000 0.000000
25.065176 68.197839 368.270508 0.455604 -0.472076 -14.731395 -0.560680 0.340687 14.734939 0.211472 -0.887142 0.011657 -1.126436 1.400826 -0.139644 0.000000 0.000000 0.000000 -5.916736 1.368487 -0.233000 19.551063 12.696438 -4.040969 4.623261 22.342997 5.899670 -4.319436 -27.025159 -4.896727 0.000000 0.000000 0.000000 0.000000 0.000000 0.000000 3.332835 -10.048702 -0.355757 6.544633 38.329772 -2.245604 -11.144870 20.324384 -3.470007 13.016341 -13.479170 9.794070 0.000000 0.000000 0.000000 0.000000 0.000000 0.000000 -0.560680 0.340687 14.734939 0.262826 -2.001381 0.321596 3.434297 33.299514 6.607842 0.000000 0.000000 0.000000 -1.712458 0.671978 14.374765 1.033524 -0.606716 0.375824 -0.095209 -2.272208 -1.245035 0.000000 0.000000 0.000000
25.246048 68.364140 368.230046 0.619141 -0.484146 -14.914215 -0.722899 0.308458 14.918777 0.342346 -0.830368 0.022076 -1.493585 2.092064 -0.305834 0.000000 0.000000 0.000000 -7.243424 2.673161 -0.456844 27.796435 17.441905 -6.515319 -0.208740 22.113246 7.462738 -0.968968 -29.141395 -3.678759 0.000000 0.000000 0.000000 0.000000 0.000000 0.000000 4.250763 -12.298199 -0.262785 13.501731 49.664088 -7.434931 -11.922197 28.378546 -6.475031 17.120922 -18.622547 17.553792 0.000000 0.000000 0.000000 0.000000 0.000000 0.000000 -0.680085 1.209052 14.828122 -1.060604 -2.431826 0.079472 7.439572 35.371299 5.237878 0.000000 0.000000 0.000000 -2.124015 0.261797 14.476753 1.368308 -0.304967 0.452638 -0.035276 -2.300845 -1.478407 0.000000 0.000000 0.000000
